<?xml version="1.0" encoding="utf-8"?>
<!-- Generator: Adobe Illustrator 27.5.0, SVG Export Plug-In . SVG Version: 6.00 Build 0)  -->
<svg version="1.1" id="Layer_1" xmlns="http://www.w3.org/2000/svg" xmlns:xlink="http://www.w3.org/1999/xlink" x="0px" y="0px"
	 viewBox="0 0 100 100" style="enable-background:new 0 0 100 100;" xml:space="preserve">
<style type="text/css">
	.st0{fill:#FFFFFF;}
</style>
<g>
	<path class="st0" d="M34.5,64.1c1.7,1.7,4.4,1.7,6,0c1.7-1.7,1.7-4.3,0-6c-1.7-1.7-4.4-1.7-6,0C32.9,59.7,32.9,62.4,34.5,64.1
		L34.5,64.1z M39.9,58.8c1.3,1.3,1.3,3.4,0,4.7c-1.3,1.3-3.4,1.3-4.7,0c-1.3-1.3-1.3-3.4,0-4.7C36.5,57.5,38.6,57.5,39.9,58.8
		L39.9,58.8z"/>
	<path class="st0" d="M50.5,50c0-1.1-0.8-1.9-1.9-1.9c-1,0-1.9,0.9-1.9,1.9s0.9,1.9,1.9,1.9S50.5,51,50.5,50z M47.6,50
		c0-0.5,0.4-1,1-1c0.5,0,1,0.4,1,1c0,0.5-0.4,1-1,1S47.6,50.5,47.6,50z"/>
	<path class="st0" d="M64.8,68.6c1.9,0,3.8-0.8,5.1-2.1c0.2-0.2,0.2-0.5,0-0.7L54,50l15.8-15.8c0.2-0.2,0.2-0.5,0-0.7
		c-1.4-1.4-3.2-2.1-5.1-2.1c-1.9,0-3.7,0.7-5.1,2.1l-11,11l-3.8-3.8c0.7-2.6-0.1-5.3-2-7.1c-2.9-2.9-7.7-2.9-10.6,0
		c-2.9,2.9-2.9,7.7,0,10.6c1.9,1.9,4.6,2.6,7.1,2l3.8,3.8l-3.8,3.8c-2.6-0.7-5.3,0.1-7.1,2c-1.5,1.5-2.2,3.4-2.2,5.3
		c0,1.9,0.7,3.9,2.2,5.3c2.9,2.9,7.7,2.9,10.6,0c1.9-1.9,2.6-4.6,2-7.1l3.8-3.8l11,11C61,67.9,62.8,68.6,64.8,68.6L64.8,68.6z
		 M60.3,34.2c1.2-1.2,2.8-1.8,4.4-1.8c1.5,0,3,0.5,4.1,1.5L53.4,49.3l-4.1-4.1L60.3,34.2z M43.9,58.8c-0.1,0.1-0.2,0.3-0.1,0.5
		c0.7,2.3,0.1,4.8-1.6,6.5c-2.6,2.6-6.7,2.6-9.3,0c-2.6-2.6-2.6-6.7,0-9.3c1.7-1.7,4.2-2.3,6.5-1.6c0.2,0,0.3,0,0.5-0.1l4-4
		c0.1,0.1,4.2,4.2,4.1,4.1L43.9,58.8z M39.8,45.3c-0.1-0.1-0.3-0.2-0.5-0.1c-2.3,0.7-4.8,0-6.5-1.7c-2.6-2.6-2.6-6.7,0-9.3
		c2.6-2.6,6.7-2.6,9.3,0c1.2,1.2,1.9,2.9,1.9,4.6c0,0.6-0.1,1.3-0.3,1.9c0,0.2,0,0.3,0.1,0.5c-0.1-0.1,6.9,6.9,24.9,24.9
		c-1.1,1-2.6,1.5-4.1,1.5h0c-1.7,0-3.2-0.6-4.4-1.8C41.7,47.2,45,50.5,39.8,45.3L39.8,45.3z"/>
	<path class="st0" d="M40.5,35.9c-1.7-1.7-4.4-1.7-6,0c-1.7,1.7-1.7,4.4,0,6c1.7,1.7,4.3,1.6,6,0C42.2,40.3,42.2,37.6,40.5,35.9
		L40.5,35.9z M35.2,41.3c-1.3-1.3-1.3-3.4,0-4.7c1.3-1.3,3.4-1.3,4.7,0c1.3,1.3,1.3,3.4,0,4.7C38.6,42.5,36.5,42.5,35.2,41.3
		L35.2,41.3z"/>
</g>
</svg>
