<?xml version="1.0" encoding="utf-8"?>
<!-- Generator: Adobe Illustrator 27.5.0, SVG Export Plug-In . SVG Version: 6.00 Build 0)  -->
<svg version="1.1" id="Layer_1" xmlns="http://www.w3.org/2000/svg" xmlns:xlink="http://www.w3.org/1999/xlink" x="0px" y="0px"
	 viewBox="0 0 31.4 35.8" style="enable-background:new 0 0 31.4 35.8;" xml:space="preserve">
<style type="text/css">
	.st0{fill-rule:evenodd;clip-rule:evenodd;fill:#FFFFFF;}
</style>
<path class="st0" d="M13,24.3C13,24.3,13,24.3,13,24.3c0.6,0.8,1.4,1.4,2.3,1.9l0,0c0.9,0.5,2,0.7,3.1,0.7c1.6,0,3-0.5,4.2-1.5
	c0,0,0,0,0,0c0.7-0.5,1.2-1.2,1.7-1.9c0,0,0,0,0,0c0.6-1,0.9-2.2,0.9-3.4c0-1.4-0.4-2.8-1.2-3.9c0,0,0,0,0,0
	c-0.5-0.7-1.2-1.4-1.9-1.9c0,0,0,0,0,0c-1.1-0.7-2.3-1.1-3.6-1.1c-3.8,0-6.8,3-6.8,6.8C11.5,21.7,12.1,23.1,13,24.3L13,24.3z
	 M17.9,25.8c-0.4,0.1-0.8,0.2-1.2,0.3c0.5,0.1,1,0.2,1.6,0.2c0.1,0,0.2,0,0.4,0C18.4,26.1,18.2,25.9,17.9,25.8z M14.6,15.1
	c-0.5,0.4-1,0.8-1.3,1.4c0,0.5,0.2,2.4,1.3,4.5c0,0,0,0,0,0c0.9,1.8,2.5,3.8,5.2,5.1c0.7-0.2,1.4-0.5,2-0.8
	C15.9,22.6,14.8,16.5,14.6,15.1L14.6,15.1z M15.7,23.8c-0.8,0.3-1.4,0.4-1.9,0.5c0.5,0.5,1,0.9,1.6,1.2c0.2,0,0.9,0,1.8-0.3
	C16.7,24.8,16.2,24.3,15.7,23.8L15.7,23.8z M17.1,14c-0.7,0.1-1.3,0.4-1.9,0.7c0,0,0,0,0,0c0,0,0.5,7.2,7,10
	c0.5-0.4,0.9-0.8,1.2-1.3c-1.4-0.6-2.4-1.5-3.3-2.4c0,0,0,0,0,0c0,0,0,0,0,0C17.8,18.4,17.2,15.1,17.1,14L17.1,14z M14.1,21.5
	c-0.7,0.2-1.3,0.4-1.7,0.4c0.2,0.7,0.5,1.3,0.9,1.8c0.3,0,1-0.2,1.9-0.5C14.8,22.7,14.4,22.1,14.1,21.5L14.1,21.5z M24.5,20.6
	C24,21.4,23.5,22,23,22.6c0.2,0.1,0.5,0.3,0.7,0.4C24.2,22.2,24.4,21.5,24.5,20.6L24.5,20.6z M23.7,17.1c-0.8,1.6-1.8,2.8-2.8,3.8
	c0.5,0.5,1,1,1.7,1.4c0.7-0.8,1.4-1.7,1.9-2.9C24.3,18.5,24.1,17.7,23.7,17.1L23.7,17.1z M12.8,17.4c-0.4,0.8-0.6,1.7-0.6,2.7
	c0,0.4,0,0.9,0.1,1.3c0.3-0.1,0.9-0.2,1.6-0.4C13.2,19.5,12.9,18.2,12.8,17.4L12.8,17.4z M21.9,15.1c-0.7,1.5-1.6,2.7-2.7,3.6
	c0.3,0.6,0.7,1.2,1.2,1.7c1.1-1,2.1-2.3,2.9-4C22.9,15.9,22.4,15.5,21.9,15.1L21.9,15.1z M21.4,14.7c-0.9-0.5-2-0.8-3.1-0.8
	c-0.2,0-0.4,0-0.6,0c0.1,0.7,0.3,2.4,1.2,4.2C19.9,17.3,20.8,16.1,21.4,14.7L21.4,14.7z M11.8,13.4l1.2,2c0.1-0.2,0.3-0.3,0.4-0.5
	l-1.1-1.9c0.1-0.1,0.1-0.3,0.1-0.4c0-0.3-0.1-0.8-0.3-1.2c-0.3-0.4-0.6-0.8-0.9-0.9c-0.3-0.1-0.5-0.1-0.7,0
	c-0.2,0.1-0.3,0.3-0.4,0.7c0,0.3,0.1,0.8,0.3,1.2c0.3,0.4,0.6,0.8,0.9,0.9C11.5,13.4,11.6,13.4,11.8,13.4L11.8,13.4z M15.5,11.9
	l0.1,1.6c0.2-0.1,0.4-0.2,0.6-0.2l-0.1-1.4c0.1-0.1,0.2-0.2,0.3-0.3c0.2-0.3,0.3-0.7,0.2-1.2c0-0.5-0.2-0.9-0.4-1.2
	c-0.2-0.2-0.4-0.4-0.7-0.3c-0.2,0-0.5,0.2-0.6,0.4c-0.2,0.3-0.3,0.7-0.2,1.2c0,0.5,0.2,0.9,0.4,1.2C15.3,11.8,15.4,11.9,15.5,11.9
	L15.5,11.9z M11.8,12.7C11.8,12.7,11.8,12.7,11.8,12.7c0-0.1,0-0.2,0-0.3c0-0.2-0.1-0.5-0.3-0.8c-0.2-0.3-0.3-0.5-0.5-0.6
	c-0.1,0-0.1-0.1-0.2-0.1c0,0-0.1,0-0.1,0c0,0,0,0,0,0.1c0,0.1,0,0.1,0,0.2c0,0.2,0.1,0.5,0.3,0.8c0.2,0.3,0.3,0.5,0.5,0.6
	C11.6,12.7,11.6,12.7,11.8,12.7C11.7,12.8,11.7,12.8,11.8,12.7C11.8,12.8,11.8,12.8,11.8,12.7C11.8,12.8,11.8,12.7,11.8,12.7
	L11.8,12.7z M15.8,11.3C15.8,11.3,15.8,11.3,15.8,11.3c0.1-0.1,0.1-0.2,0.2-0.2c0.1-0.2,0.1-0.5,0.1-0.8c0-0.3-0.1-0.6-0.2-0.8
	c0-0.1-0.1-0.1-0.1-0.2c0,0,0,0-0.1,0c0,0,0,0-0.1,0.1c0,0-0.1,0.1-0.1,0.2c-0.1,0.2-0.1,0.5-0.1,0.8c0,0.3,0.1,0.6,0.2,0.8
	C15.6,11.2,15.7,11.3,15.8,11.3C15.7,11.3,15.7,11.3,15.8,11.3C15.8,11.3,15.8,11.3,15.8,11.3C15.8,11.3,15.8,11.3,15.8,11.3
	L15.8,11.3z"/>
</svg>
